# xmcd
#
# Track frame offsets:
#	150
#	13633
#	26626
#	46284
#	61420
#	77749
#	93220
#	105823
#	118218
#	131205
#
# Disc length: 1943 seconds
#
# Revision: 0
# Processed by: cddbd v1.5.2PL0 Copyright (c) Steve Scherf et al.
# Submitted via: dBpowerAMP V4.0
#
DISCID=7907950a
DTITLE=Johnny Cash - American VI - Ain't No Grave
DYEAR=1900
DGENRE=Country
TTITLE0=1 Aloha Oe
TTITLE1=2 Ain't No Grave
TTITLE2=3 Redemption Day
TTITLE3=4 For the Good Times
TTITLE4=5 I Corinthians 15-55
TTITLE5=6 Can't Help But Wonder Where I'm Bound 
TTITLE6=7 Satisfied Mind
TTITLE7=8 I Don't Hurt Anymore
TTITLE8=Cool Water
TTITLE9=Last Night I Had the Strangest Dream
EXTD=
EXTT0=
EXTT1=
EXTT2=
EXTT3=
EXTT4=
EXTT5=
EXTT6=
EXTT7=
EXTT8=
EXTT9=
PLAYORDER=
